<svg width="247" height="69" viewBox="0 0 247 69" fill="none" xmlns="http://www.w3.org/2000/svg">
<g clip-path="url(#clip0_104_39)">
<path fill-rule="evenodd" clip-rule="evenodd" d="M39.3225 45.3571C36.3741 42.8631 32.9289 40.8015 29.0861 39.2386C26.734 38.241 24.2163 37.4429 21.6323 36.8111V42.2978C23.5206 42.7966 25.3426 43.4284 27.0653 44.16C31.1068 45.8559 34.6846 48.1171 37.4674 50.8771L39.3225 52.7393L41.1777 50.8771C43.9604 48.1171 47.5382 45.8559 51.5797 44.16C53.3024 43.4284 55.1244 42.7966 57.0127 42.2978V36.8111C54.3956 37.4429 51.911 38.241 49.5258 39.2386C45.7162 40.8347 42.2377 42.8964 39.2894 45.3571H39.3225Z" fill="url(#paint0_linear_104_39)"/>
<path fill-rule="evenodd" clip-rule="evenodd" d="M16.0338 41.134V6.35133C19.3796 7.01639 22.6593 7.84771 25.8395 9.07807C29.9143 10.641 33.8233 12.8024 37.5999 16.028L39.3225 17.4911L41.0452 16.028C44.8217 12.8024 48.7308 10.641 52.8055 9.07807C55.9857 7.88096 59.2654 7.01639 62.6113 6.35133V41.134C63.572 40.9677 64.5327 40.868 65.5265 40.7682L67.9448 40.5354V0L64.8308 0.532048C60.0604 1.33012 55.4226 2.36096 50.9172 4.09012C46.9419 5.61976 43.0659 7.64819 39.3225 10.5745C35.5791 7.64819 31.7031 5.61976 27.7278 4.09012C23.2225 2.36096 18.5846 1.36337 13.7811 0.532048L10.7002 0V40.5354L13.1185 40.7682C14.0792 40.868 15.0731 40.9677 16.0338 41.134Z" fill="url(#paint1_linear_104_39)"/>
<path fill-rule="evenodd" clip-rule="evenodd" d="M75.7961 9.37732C75.0011 9.44383 74.1729 9.51034 73.3116 9.6101V44.3927C66.7192 44.7585 60.1267 46.7205 54.3957 49.4472C48.3333 52.307 43.1654 56.0978 39.8857 59.7556C36.1423 55.599 30.8087 52.0409 24.8789 49.5137C18.5846 46.8535 11.8266 45.2906 5.33356 45.3571V10.5744C4.40598 10.5412 3.47841 10.5079 2.61709 10.5412L0 10.6077V51.0433L2.88211 50.7773C9.27575 50.212 16.2988 51.6419 22.7918 54.4019C29.1192 57.0954 34.6516 61.0192 37.6993 65.5749L39.9851 69L42.1384 65.5084C44.4242 61.8173 49.824 57.5277 56.6483 54.3021C58.6029 53.3711 60.6899 52.573 62.8101 51.8747V60.2212L65.4603 58.6583L68.1105 60.2212V50.478C70.6945 49.9793 73.3116 49.68 75.8955 49.7132H78.5789V9.21106L75.763 9.37732H75.7961Z" fill="url(#paint2_linear_104_39)"/>
<path d="M90.6704 25.0395V19.985H114.423V25.0395H105.578V49.0149H99.5486V25.0395H90.7035H90.6704Z" fill="#171E3D"/>
<path d="M124.958 49.414C122.738 49.414 120.817 48.9484 119.193 48.0506C117.603 47.1528 116.344 45.8559 115.483 44.16C114.622 42.4973 114.191 40.5022 114.191 38.2077C114.191 35.9132 114.622 34.0178 115.483 32.3219C116.344 30.626 117.57 29.3292 119.16 28.3648C120.75 27.4337 122.572 26.9349 124.726 26.9349C126.15 26.9349 127.475 27.1677 128.734 27.6332C129.96 28.0988 131.053 28.7639 131.981 29.6949C132.908 30.626 133.637 31.7566 134.134 33.1532C134.664 34.5499 134.896 36.146 134.896 38.0082V39.6708H116.576V35.9465H129.231C129.231 35.0819 129.032 34.3171 128.668 33.652C128.304 32.987 127.774 32.4549 127.111 32.0559C126.448 31.6569 125.686 31.4906 124.792 31.4906C123.898 31.4906 123.069 31.6901 122.374 32.1224C121.678 32.5547 121.115 33.12 120.717 33.8183C120.32 34.5166 120.121 35.3147 120.121 36.1793V39.7373C120.121 40.8014 120.32 41.7325 120.717 42.5306C121.115 43.3287 121.678 43.9272 122.407 44.3595C123.136 44.7918 123.997 44.9913 125.024 44.9913C125.686 44.9913 126.316 44.8916 126.846 44.692C127.409 44.4925 127.873 44.2265 128.27 43.8275C128.668 43.4617 128.966 42.9961 129.165 42.4308L134.73 42.7966C134.432 44.1267 133.869 45.2906 133.008 46.2882C132.146 47.2858 131.02 48.0506 129.662 48.6159C128.304 49.1812 126.713 49.4472 124.925 49.4472L124.958 49.414Z" fill="#171E3D"/>
<path d="M145.033 49.414C143.642 49.414 142.416 49.1812 141.323 48.6824C140.229 48.1836 139.401 47.4853 138.772 46.521C138.142 45.5566 137.844 44.3595 137.844 42.9296C137.844 41.7325 138.076 40.7017 138.507 39.8704C138.937 39.039 139.567 38.374 140.329 37.8752C141.091 37.3764 141.952 37.0106 142.946 36.7446C143.94 36.4786 144.934 36.3123 146.027 36.2125C147.286 36.0795 148.313 35.9465 149.075 35.8467C149.836 35.747 150.4 35.5475 150.764 35.3147C151.095 35.0819 151.294 34.7161 151.294 34.2839V34.1841C151.294 33.2863 151.029 32.5879 150.466 32.0892C149.903 31.5904 149.108 31.3576 148.081 31.3576C146.987 31.3576 146.126 31.5904 145.497 32.0559C144.867 32.5214 144.437 33.12 144.238 33.8516L138.672 33.386C138.937 32.0559 139.501 30.9253 140.329 29.961C141.157 28.9966 142.217 28.2318 143.542 27.733C144.867 27.201 146.391 26.9349 148.114 26.9349C149.306 26.9349 150.466 27.0679 151.592 27.3672C152.685 27.6665 153.679 28.0988 154.541 28.6973C155.402 29.2959 156.064 30.0607 156.595 30.9918C157.091 31.9229 157.356 33.0202 157.356 34.3171V48.9817H151.658V45.9557H151.493C151.128 46.6207 150.665 47.2193 150.101 47.7513C149.505 48.2501 148.809 48.6824 147.981 48.9484C147.153 49.2477 146.226 49.3807 145.132 49.3807L145.033 49.414ZM146.756 45.2573C147.65 45.2573 148.412 45.0911 149.108 44.7253C149.803 44.3595 150.3 43.894 150.698 43.2954C151.095 42.6969 151.261 41.9985 151.261 41.2337V38.9393C151.062 39.0723 150.83 39.172 150.499 39.2718C150.168 39.3716 149.803 39.4713 149.406 39.5378C149.008 39.6043 148.611 39.7041 148.18 39.7373C147.749 39.7706 147.418 39.8371 147.087 39.9036C146.391 40.0034 145.762 40.1696 145.232 40.4024C144.702 40.6352 144.304 40.9345 144.006 41.3002C143.708 41.666 143.575 42.1648 143.575 42.7301C143.575 43.5614 143.873 44.1932 144.47 44.5923C145.066 45.0246 145.828 45.2241 146.756 45.2241V45.2573Z" fill="#171E3D"/>
<path d="M171.701 49.414C169.481 49.414 167.56 48.9484 165.97 47.9841C164.38 47.0197 163.154 45.7229 162.292 44.027C161.431 42.3311 161 40.4024 161 38.1744C161 35.9465 161.431 33.9846 162.292 32.2887C163.154 30.5928 164.38 29.2959 165.97 28.3316C167.56 27.3672 169.448 26.9017 171.634 26.9017C173.523 26.9017 175.179 27.2342 176.604 27.9325C178.028 28.6308 179.154 29.5952 179.983 30.8255C180.811 32.0559 181.275 33.519 181.341 35.2149H175.676C175.51 34.1176 175.08 33.253 174.417 32.5879C173.755 31.9229 172.827 31.5903 171.734 31.5903C170.806 31.5903 169.978 31.8564 169.316 32.3552C168.62 32.854 168.09 33.5855 167.692 34.5499C167.295 35.5142 167.129 36.6781 167.129 38.0414C167.129 39.4048 167.328 40.6019 167.692 41.5995C168.09 42.5638 168.62 43.3287 169.316 43.8275C170.011 44.3263 170.839 44.5923 171.767 44.5923C172.463 44.5923 173.059 44.4593 173.622 44.16C174.185 43.8607 174.616 43.4617 174.98 42.9296C175.345 42.3976 175.577 41.7325 175.709 40.9677H181.374C181.275 42.6303 180.844 44.0935 180.016 45.3571C179.221 46.6207 178.094 47.6183 176.703 48.3166C175.279 49.0149 173.622 49.3807 171.701 49.3807V49.414Z" fill="#171E3D"/>
<path d="M191.279 36.412V48.9817H185.283V19.985H191.113V31.0916H191.378C191.875 29.7947 192.67 28.7971 193.764 28.0655C194.857 27.334 196.215 26.9682 197.871 26.9682C199.362 26.9682 200.687 27.3007 201.814 27.9658C202.94 28.6308 203.801 29.5619 204.431 30.7923C205.06 32.0226 205.358 33.4858 205.358 35.1817V49.0482H199.329V36.279C199.329 34.9489 198.998 33.8848 198.335 33.1532C197.64 32.4217 196.712 32.0226 195.486 32.0226C194.658 32.0226 193.929 32.1889 193.333 32.5547C192.737 32.9205 192.207 33.4193 191.875 34.0843C191.511 34.7494 191.345 35.5475 191.345 36.4785L191.279 36.412Z" fill="#171E3D"/>
<path d="M219.968 49.414C217.748 49.414 215.827 48.9484 214.203 48.0506C212.613 47.1528 211.354 45.8559 210.493 44.16C209.632 42.4973 209.201 40.5022 209.201 38.2077C209.201 35.9132 209.632 34.0178 210.493 32.3219C211.354 30.626 212.58 29.3292 214.17 28.3648C215.76 27.4337 217.582 26.9349 219.736 26.9349C221.16 26.9349 222.485 27.1677 223.744 27.6332C224.97 28.0988 226.063 28.7639 226.991 29.6949C227.918 30.626 228.647 31.7566 229.144 33.1532C229.674 34.5499 229.906 36.146 229.906 38.0082V39.6708H211.586V35.9465H224.241C224.241 35.0819 224.042 34.3171 223.678 33.652C223.314 32.987 222.784 32.4549 222.121 32.0559C221.458 31.6569 220.696 31.4906 219.802 31.4906C218.908 31.4906 218.079 31.6901 217.384 32.1224C216.688 32.5547 216.125 33.12 215.727 33.8183C215.33 34.5166 215.131 35.3147 215.131 36.1793V39.7373C215.131 40.8014 215.33 41.7325 215.727 42.5306C216.125 43.3287 216.688 43.9272 217.417 44.3595C218.146 44.7918 219.007 44.9913 220.034 44.9913C220.696 44.9913 221.326 44.8916 221.856 44.692C222.419 44.4925 222.883 44.2265 223.28 43.8275C223.678 43.4617 223.976 42.9961 224.175 42.4308L229.74 42.7966C229.442 44.1267 228.879 45.2906 228.018 46.2882C227.156 47.2858 226.03 48.0506 224.672 48.6159C223.314 49.1812 221.723 49.4472 219.935 49.4472L219.968 49.414Z" fill="#171E3D"/>
<path d="M233.815 49.0149V27.2342H239.646V31.0251H239.878C240.275 29.6617 240.938 28.6641 241.865 27.9658C242.793 27.2675 243.853 26.9349 245.079 26.9349C245.377 26.9349 245.708 26.9349 246.039 27.0014C246.371 27.0679 246.702 27.1012 246.967 27.1677V32.5214C246.702 32.4217 246.304 32.3552 245.807 32.2887C245.31 32.2222 244.847 32.1889 244.449 32.1889C243.555 32.1889 242.76 32.3884 242.097 32.7542C241.401 33.1532 240.871 33.652 240.474 34.3504C240.076 35.0154 239.878 35.8135 239.878 36.7113V49.0149H233.881H233.815Z" fill="#171E3D"/>
<path d="M118.199 6.31805H121.744L125.488 15.4959H125.653L129.397 6.31805H132.941V19.985H130.159V11.1065H130.059L126.548 19.9185H124.659L121.148 11.0732H121.048V19.985H118.266V6.31805H118.199Z" fill="#171E3D"/>
<path d="M136.983 23.8091C136.618 23.8091 136.287 23.8091 135.989 23.7426C135.691 23.6761 135.426 23.6096 135.227 23.5431L135.856 21.4149C136.188 21.5147 136.486 21.5812 136.751 21.5812C137.016 21.5812 137.248 21.5147 137.447 21.3817C137.645 21.2486 137.811 21.0159 137.943 20.7166L138.109 20.2843L134.465 9.7431H137.447L139.567 17.2583H139.666L141.786 9.7431H144.768L140.792 21.0824C140.594 21.6477 140.329 22.1132 140.031 22.5123C139.699 22.9113 139.302 23.2438 138.805 23.4766C138.308 23.7094 137.712 23.8091 137.016 23.8091H136.983Z" fill="#171E3D"/>
</g>
<defs>
<linearGradient id="paint0_linear_104_39" x1="37.3348" y1="-1.49637" x2="40.3055" y2="60.0206" gradientUnits="userSpaceOnUse">
<stop stop-color="#F2238E"/>
<stop offset="1" stop-color="#FB1E2B"/>
</linearGradient>
<linearGradient id="paint1_linear_104_39" x1="38.2624" y1="-1.52964" x2="41.2331" y2="59.9541" gradientUnits="userSpaceOnUse">
<stop stop-color="#F2238E"/>
<stop offset="1" stop-color="#FB1E2B"/>
</linearGradient>
<linearGradient id="paint2_linear_104_39" x1="37.7987" y1="-1.52966" x2="40.7693" y2="59.9873" gradientUnits="userSpaceOnUse">
<stop stop-color="#F2238E"/>
<stop offset="1" stop-color="#FB1E2B"/>
</linearGradient>
<clipPath id="clip0_104_39">
<rect width="247" height="69" fill="white"/>
</clipPath>
</defs>
</svg>
