<svg width="13" height="13" viewBox="0 0 13 13" fill="none" xmlns="http://www.w3.org/2000/svg">
<g clip-path="url(#clip0_99_11)">
<path d="M6.49996 0C2.91012 0 0 2.91012 0 6.49996C0 10.0898 2.91012 13 6.49996 13C10.0898 13 13 10.0898 13 6.49996C12.996 2.91179 10.0883 0.00404662 6.49996 0V0ZM6.49996 12.35C3.26908 12.35 0.64996 9.73084 0.64996 6.49996C0.64996 3.26908 3.26908 0.64996 6.49996 0.64996C9.73084 0.64996 12.35 3.26908 12.35 6.49996C12.3463 9.72929 9.72929 12.3463 6.49996 12.35Z" fill="#4E56FF"/>
<path d="M5.73896 3.98026C5.60375 3.86207 5.39845 3.87588 5.28026 4.01097C5.16219 4.14617 5.176 4.35148 5.31109 4.46966L7.63147 6.49988L5.31097 8.53022C5.17576 8.6484 5.16207 8.85371 5.28014 8.9888C5.39833 9.124 5.60363 9.13781 5.73884 9.01962L8.3388 6.74458C8.40938 6.68293 8.44984 6.59367 8.44984 6.49988C8.44984 6.40609 8.40938 6.31695 8.3388 6.25518L5.73896 3.98026Z" fill="#4E56FF"/>
</g>
<defs>
<clipPath id="clip0_99_11">
<rect width="13" height="13" fill="white"/>
</clipPath>
</defs>
</svg>
